<?xml version="1.0" standalone="no"?>
<!DOCTYPE svg PUBLIC "-//W3C//DTD SVG 20010904//EN"
 "http://www.w3.org/TR/2001/REC-SVG-20010904/DTD/svg10.dtd">
<svg version="1.0" xmlns="http://www.w3.org/2000/svg"
 width="512.000000pt" height="512.000000pt" viewBox="0 0 512.000000 512.000000"
 preserveAspectRatio="xMidYMid meet">
<metadata>
Created by potrace 1.14, written by Peter Selinger 2001-2017
</metadata>
<g transform="translate(0.000000,512.000000) scale(0.100000,-0.100000)"
fill="#000000" stroke="none">
<path d="M1112 4093 c-7 -2 -19 -18 -27 -33 -12 -24 -15 -90 -15 -378 0 -329
1 -351 19 -373 l19 -24 355 -3 355 -3 29 25 28 24 0 355 c0 346 -1 356 -21
384 l-21 28 -354 2 c-195 1 -360 -1 -367 -4z"/>
<path d="M2226 3737 c-5 -21 -6 -59 -3 -85 4 -37 12 -53 41 -79 l36 -33 831 0
c914 0 865 -3 903 60 17 29 22 134 8 157 -4 6 -7 -13 -7 -41 0 -65 -18 -100
-61 -121 -29 -14 -126 -15 -853 -13 l-821 3 -27 28 c-23 23 -29 39 -33 95 -6
64 -6 65 -14 29z"/>
<path d="M1112 2943 c-7 -3 -19 -18 -27 -33 -12 -24 -15 -90 -15 -380 l0 -351
25 -24 24 -25 350 0 350 0 28 24 28 24 3 329 c2 180 0 343 -3 362 -4 18 -17
44 -30 57 l-24 24 -348 -1 c-191 0 -354 -3 -361 -6z"/>
<path d="M2228 2600 c-13 -41 -9 -110 7 -144 9 -18 30 -41 48 -51 31 -19 56
-20 852 -20 765 0 822 1 852 18 18 9 39 31 48 47 17 32 20 136 5 160 -7 10 -8
4 -4 -20 9 -57 -12 -118 -49 -140 -31 -19 -57 -20 -854 -20 l-823 0 -32 29
c-30 26 -33 36 -38 98 -4 50 -7 62 -12 43z"/>
<path d="M1099 1771 l-29 -29 0 -357 0 -356 25 -24 24 -25 351 0 c210 0 359 4
370 10 36 19 40 63 40 397 0 354 -4 384 -55 403 -16 6 -164 10 -361 10 l-336
0 -29 -29z"/>
<path d="M2228 1450 c-13 -41 -9 -119 6 -149 8 -15 28 -37 43 -47 27 -18 61
-19 839 -22 636 -2 819 0 850 10 57 19 84 65 84 142 0 34 -5 68 -11 76 -7 11
-8 5 -4 -21 9 -50 -10 -114 -42 -138 -25 -21 -34 -21 -850 -21 -888 0 -863 -1
-891 52 -6 12 -13 50 -14 83 -2 45 -5 54 -10 35z"/>
</g>
</svg>
